#!OML:ASF Y:\EmotionMaleHayes\Project 1\Capture day 1\Session 1\Male1.ASF
:FULLY-SPECIFIED
:DEGREES
1
root -27.86 17.1037 2.10802 122.699 87.7511 121.57
lowerback 5.11935 1.19295 -4.56582
upperback 0.469516 1.32834 -0.848689
thorax -2.47036 0.71373 1.58942
lowerneck -20.8985 1.20222 4.18672
upperneck 21.8641 0.362859 0.302744
head 10.4875 0.615737 -0.52094
rclavicle 8.12532e-015 2.78299e-015
rhumerus 0 0 0
rradius 0
rwrist 0
rhand 0 0
rfingers 0
rthumb 0 0
lclavicle 8.12532e-015 2.78299e-015
lhumerus -34.1542 -10.0012 91.869
lradius 29.5222
lwrist -15.2525
lhand -19.8233 -25.7501
lfingers 7.12502
lthumb 6.51042 4.12984
rfemur 8.06361 -4.94342 13.1438
rtibia 2.43001
rfoot -16.1422 -5.40258
rtoes 16.4232
lfemur 7.97758 2.66921 -17.88
ltibia -1.31866
lfoot -12.3963 17.3685
ltoes -0.62336
2
root -27.8565 17.1032 2.10683 126.656 87.842 125.362
lowerback 4.80429 1.17824 -4.39577
upperback 0.524863 1.33778 -0.810021
thorax -2.23427 0.711352 1.54056
lowerneck -21.1773 1.23031 4.11854
upperneck 21.971 0.364725 0.466003
head 10.5787 0.633251 -0.449677
rclavicle 9.0447e-015 -4.37326e-015
rhumerus 0 0 0
rradius 0
rwrist 0
rhand 0 0
rfingers 0
rthumb 0 0
lclavicle 9.0447e-015 -4.37326e-015
lhumerus -33.8923 -10.074 91.8826
lradius 29.2967
lwrist -15.3652
lhand -16.1433 -23.5701
lfingers 7.12502
lthumb 10.0619 6.16936
rfemur 7.95061 -5.07743 13.3016
rtibia 2.33531
rfoot -16.179 -5.32847
rtoes 15.9289
lfemur 7.76092 2.68607 -17.6648
ltibia -1.20546
lfoot -12.3949 17.3762
ltoes -1.40483
3
root -27.8576 17.0999 2.1415 81.7856 88.1146 80.4898
lowerback 4.70337 1.75328 -5.03101
upperback 0.521739 2.07706 -0.78663
thorax -2.24848 1.08597 1.86948
lowerneck -21.226 1.2017 4.10941
upperneck 22.0043 0.309397 0.526694
head 10.5991 0.61588 -0.43444
rclavicle -1.31198e-014 1.11319e-014
rhumerus 0 0 0
rradius 0
rwrist 0
rhand 0 0
rfingers 0
rthumb 0 0
lclavicle -1.31198e-014 1.11319e-014
lhumerus -33.8495 -10.1292 91.8358
lradius 29.2877
lwrist -15.4374
lhand -19.7967 -25.5745
lfingers 7.12502
lthumb 6.53609 4.30465
rfemur 7.22126 -5.4029 12.9925
rtibia 3.23816
rfoot -15.9264 -3.56794
rtoes 15.8984
lfemur 8.22147 3.58185 -17.88
ltibia -1.66605
lfoot -12.4822 17.9729
ltoes -0.94154
4
root -27.8577 17.0998 2.14301 80.5922 88.1326 79.2751
lowerback 4.68899 1.79303 -4.97663
upperback 0.522193 2.13335 -0.807646
thorax -2.24113 1.11331 1.8139
lowerneck -21.2536 1.16454 4.12659
upperneck 21.9886 0.252876 0.513998
head 10.5974 0.589488 -0.45038
rclavicle 1.56543e-015 -2.5842e-015
rhumerus 0 0 0
rradius 0
rwrist 0
rhand 0 0
rfingers 0
rthumb 0 0
lclavicle 1.56543e-015 -2.5842e-015
lhumerus -33.8488 -10.2094 91.8216
lradius 29.3188
lwrist -15.5607
lhand -15.6459 -22.5332
lfingers 7.12502
lthumb 10.5417 7.18245
rfemur 7.18418 -5.30745 13.0708
rtibia 3.26732
rfoot -15.9374 -3.65337
rtoes 15.9508
lfemur 8.21789 3.48674 -17.8715
ltibia -1.70509
lfoot -12.5709 18.0728
ltoes -0.23536
5
root -27.8679 17.0998 2.14788 86.833 88.0616 85.492
lowerback 4.79969 1.71674 -5.21401
upperback 0.505354 2.01286 -0.755438
thorax -2.3223 1.05769 2.00518
lowerneck -21.254 1.18758 4.09413
upperneck 21.9506 0.307964 0.463298
head 10.5843 0.60402 -0.455071
rclavicle -1.13307e-014 7.95139e-015
rhumerus 0 0 0
rradius 0
rwrist 0
rhand 0 0
rfingers 0
rthumb 0 0
lclavicle -1.13307e-014 7.95139e-015
lhumerus -33.1353 -10.5895 92.0438
lradius 27.9273
lwrist -15.1118
lhand -20.8154 -25.8921
lfingers 7.12502
lthumb 5.55257 4.01513
rfemur 7.18757 -5.28476 13.0047
rtibia 3.21935
rfoot -15.9771 -3.88147
rtoes 16.1951
lfemur 8.00894 3.66196 -17.8982
ltibia -1.45431
lfoot -12.5539 17.7594
ltoes -0.849589
6
root -27.8866 17.0998 2.1585 100.313 87.9189 98.9266
lowerback 5.0477 1.46749 -5.66538
upperback 0.410081 1.639 -0.575641
thorax -2.55028 0.883414 2.46295
lowerneck -21.2656 1.31961 4.07045
upperneck 22.0282 0.537603 0.316662
head 10.6189 0.689294 -0.468948
rclavicle -1.05356e-014 4.57205e-015
rhumerus -37.4304 3.89516 -89.4877
rradius 33.6723
rwrist -0.882009
rhand -13.05 -30.0561
rfingers 7.12502
rthumb 13.045 -59.6282
lclavicle -1.05356e-014 4.57205e-015
lhumerus -31.2744 -12.0968 92.8409
lradius 23.9355
lwrist -13.1406
lhand -21.5031 -27.3269
lfingers 7.12502
lthumb 4.88861 2.59666
rfemur 7.18225 -5.19343 13.0103
rtibia 3.15918
rfoot -16.1219 -4.43108
rtoes 16.33
lfemur 7.60901 3.89182 -17.8994
ltibia -1.01867
lfoot -12.3127 17.134
ltoes -1.74793
7
root -27.8954 17.099 2.16592 106.488 87.9003 105.084
lowerback 5.18304 1.38999 -5.71601
upperback 0.360657 1.52225 -0.531739
thorax -2.67001 0.829815 2.54203
lowerneck -21.2393 1.3132 4.06564
upperneck 22.0568 0.539508 0.289168
head 10.6244 0.687053 -0.477789
rclavicle 2.86995e-015 -8.94531e-015
rhumerus -37.4277 3.80608 -89.4273
rradius 33.6157
rwrist -0.693216
rhand -13.1095 -29.913
rfingers 7.12502
rthumb 12.9876 -59.4887
lclavicle 2.86995e-015 -8.94531e-015
lhumerus -31.2011 -12.3022 92.9379
lradius 23.7168
lwrist -12.9798
lhand -21.7165 -27.3424
lfingers 7.12502
lthumb 4.68252 2.58588
rfemur 7.19632 -5.06845 13.1659
rtibia 3.09782
rfoot -16.2168 -4.80105
rtoes 15.9553
lfemur 7.44629 3.94573 -17.7957
ltibia -0.855914
lfoot -12.1546 16.8624
ltoes -2.1866
8
root -27.8949 17.0981 2.16755 104.819 87.9487 103.397
lowerback 5.1548 1.42279 -5.71614
upperback 0.348112 1.56767 -0.499869
thorax -2.67206 0.852655 2.5719
lowerneck -21.196 1.27914 4.00545
upperneck 22.0441 0.511796 0.299677
head 10.6107 0.670428 -0.46847
rclavicle -1.78906e-015 -5.56597e-015
rhumerus -37.4562 3.74195 -89.3533
rradius 33.6668
rwrist -0.732705
rhand -12.9762 -29.9149
rfingers 7.12502
rthumb 13.1162 -59.4824
lclavicle -1.78906e-015 -5.56597e-015
lhumerus -31.1383 -12.2067 92.9409
lradius 23.59
lwrist -13.1853
lhand -21.4588 -27.3878
lfingers 7.12502
lthumb 4.93131 2.53483
rfemur 7.18764 -4.96878 13.2321
rtibia 3.04831
rfoot -16.1686 -4.82691
rtoes 16.0289
lfemur 7.44419 3.997 -17.7285
ltibia -0.8847
lfoot -12.1675 16.8761
ltoes -2.10834
9
root -27.8944 17.0971 2.16725 102.762 88.0183 101.321
lowerback 5.11837 1.46557 -5.64861
upperback 0.35075 1.63092 -0.499814
thorax -2.65251 0.882704 2.53004
lowerneck -21.1783 1.26487 4.02118
upperneck 22.0037 0.492793 0.278118
head 10.5922 0.659428 -0.481873
rclavicle 2.75814e-015 2.18663e-015
rhumerus -37.4438 3.61426 -89.3155
rradius 33.6936
rwrist -0.704039
rhand -12.8471 -30.0615
rfingers 7.12502
rthumb 13.2405 -59.621
lclavicle 2.75814e-015 2.18663e-015
lhumerus -31.083 -12.1133 92.8826
lradius 23.5379
lwrist -13.4247
lhand -21.1226 -27.4343
lfingers 7.12502
lthumb 5.25593 2.48047
rfemur 7.13489 -4.92284 13.2946
rtibia 3.0666
rfoot -16.1111 -4.7504
rtoes 16.4104
lfemur 7.44817 3.9625 -17.6737
ltibia -0.945431
lfoot -12.2133 16.99
ltoes -1.39451
10
root -27.8921 17.0931 2.16642 102.553 88.175 101.044
lowerback 5.005 1.46169 -5.48511
upperback 0.353718 1.6428 -0.46292
thorax -2.58328 0.884795 2.47851
lowerneck -21.2022 1.29476 4.11787
upperneck 21.9944 0.531657 0.157655
head 10.5946 0.669617 -0.535265
rclavicle -1.67103e-014 1.98785e-015
rhumerus -37.3993 3.65245 -89.34
rradius 33.6831
rwrist -0.642881
rhand -12.8776 -30.065
rfingers 7.12502
rthumb 13.2112 -59.6264
lclavicle -1.67103e-014 1.98785e-015
lhumerus -31.0067 -11.945 92.785
lradius 23.5183
lwrist -13.3434
lhand -21.1131 -27.4255
lfingers 7.12502
lthumb 5.26517 2.48908
rfemur 7.03474 -4.99148 13.471
rtibia 3.11444
rfoot -16.1022 -4.7339
rtoes 16.112
lfemur 7.42085 3.89572 -17.5211
ltibia -0.993692
lfoot -12.2246 17.1193
ltoes -1.21333
11
root -27.7982 17.1183 2.11781 49.4106 87.495 48.5681
lowerback 4.30241 2.07076 -5.10003
upperback 0.803179 2.53499 -0.602937
thorax -1.77688 1.30059 2.08524
lowerneck -21.2152 1.3366 4.08633
upperneck 22.0098 0.584762 0.216954
head 10.6037 0.699005 -0.500567
rclavicle -2.98177e-015 -1.49089e-014
rhumerus -37.4087 3.80926 -89.3976
rradius 33.7616
rwrist -0.694133
rhand -12.8769 -30.2634
rfingers 7.12502
rthumb 13.2118 -59.8248
lclavicle -2.98177e-015 -1.49089e-014
lhumerus -30.9748 -11.7784 92.694
lradius 23.553
lwrist -12.9644
lhand -20.7426 -27.4277
lfingers 7.12502
lthumb 5.6229 2.47771
rfemur 7.55566 -5.4569 12.6085
rtibia 3.49194
rfoot -15.6963 -2.27467
rtoes 15.6816
lfemur 9.67355 2.86463 -18.3458
ltibia -2.8585
lfoot -13.2587 19.7384
ltoes 0.710379
12
root -27.7999 17.1176 2.11978 52.5585 87.3432 51.6716
lowerback 4.30405 2.07574 -5.31003
upperback 0.772445 2.5305 -0.675686
thorax -1.81482 1.30114 2.1269
lowerneck -21.1994 1.32173 4.02979
upperneck 21.9891 0.556236 0.323309
head 10.5923 0.694388 -0.457367
rclavicle -2.14315e-014 1.13307e-014
rhumerus -37.4577 3.75403 -89.4122
rradius 33.8587
rwrist -0.761573
rhand -12.8168 -30.4267
rfingers 7.12502
rthumb 13.2698 -59.9842
lclavicle -2.14315e-014 1.13307e-014
lhumerus -30.9844 -11.8303 92.6445
lradius 23.5955
lwrist -12.7025
lhand -20.3296 -27.4598
lfingers 7.12502
lthumb 6.02165 2.43466
rfemur 7.50599 -5.47357 12.3447
rtibia 3.48752
rfoot -15.7151 -2.19854
rtoes 16.0084
lfemur 9.57513 2.94093 -18.5701
ltibia -2.78034
lfoot -13.2832 19.6157
ltoes 1.0276
13
root -27.8007 17.1164 2.11995 52.9194 87.3275 52.0094
lowerback 4.27241 2.07538 -5.34582
upperback 0.785238 2.5311 -0.672791
thorax -1.7856 1.30082 2.15125
lowerneck -21.1741 1.29747 4.04963
upperneck 21.9024 0.533022 0.25657
head 10.5554 0.674768 -0.488517
rclavicle -1.14053e-014 -9.74045e-015
rhumerus -37.3889 3.6742 -89.356
rradius 33.817
rwrist -0.811208
rhand -12.8034 -30.184
rfingers 7.12502
rthumb 13.2827 -59.7408
lclavicle -1.14053e-014 -9.74045e-015
lhumerus -30.8932 -11.761 92.6073
lradius 23.5425
lwrist -12.7759
lhand -20.4701 -27.6263
lfingers 7.12502
lthumb 5.88596 2.27199
rfemur 7.47905 -5.24327 12.3986
rtibia 3.47372
rfoot -15.8058 -2.40614
rtoes 15.9316
lfemur 9.52862 3.11604 -18.53
ltibia -2.73948
lfoot -13.1793 19.4487
ltoes 0.513217
